<mxfile host="app.diagrams.net" modified="2024-04-01T19:27:35.661Z" agent="Mozilla/5.0 (Windows NT 10.0; Win64; x64) AppleWebKit/537.36 (KHTML, like Gecko) Chrome/120.0.0.0 YaBrowser/24.1.0.0 Safari/537.36" etag="vDxh5BHE8rzvgVZeOlgn" version="24.2.1" type="device">
  <diagram name="Страница — 1" id="JIFhjw-AB4dwqE-qemm8">
    <mxGraphModel dx="1114" dy="637" grid="1" gridSize="10" guides="1" tooltips="1" connect="1" arrows="1" fold="1" page="1" pageScale="1" pageWidth="827" pageHeight="1169" math="0" shadow="0">
      <root>
        <mxCell id="0" />
        <mxCell id="1" parent="0" />
        <mxCell id="mAN56RGID3uneWGihTwD-13" value="" style="rounded=0;whiteSpace=wrap;html=1;" parent="1" vertex="1">
          <mxGeometry x="219" y="370" width="180" height="110" as="geometry" />
        </mxCell>
        <mxCell id="mAN56RGID3uneWGihTwD-1" value="" style="rounded=0;whiteSpace=wrap;html=1;" parent="1" vertex="1">
          <mxGeometry x="338" y="40" width="182" height="120" as="geometry" />
        </mxCell>
        <mxCell id="mAN56RGID3uneWGihTwD-2" value="&lt;b&gt;&lt;font style=&quot;font-size: 15px;&quot;&gt;Одежда&lt;/font&gt;&lt;/b&gt;" style="text;html=1;align=center;verticalAlign=middle;whiteSpace=wrap;rounded=0;" parent="1" vertex="1">
          <mxGeometry x="369" y="20" width="120" height="60" as="geometry" />
        </mxCell>
        <mxCell id="mAN56RGID3uneWGihTwD-5" value="" style="endArrow=classic;html=1;rounded=0;" parent="1" edge="1">
          <mxGeometry width="50" height="50" relative="1" as="geometry">
            <mxPoint x="428.5" y="230" as="sourcePoint" />
            <mxPoint x="428.5" y="160" as="targetPoint" />
            <Array as="points" />
          </mxGeometry>
        </mxCell>
        <mxCell id="mAN56RGID3uneWGihTwD-9" value="&lt;font style=&quot;font-size: 14px;&quot;&gt;&amp;nbsp; &amp;nbsp;public: вывод женская&amp;nbsp; &amp;nbsp; &amp;nbsp; &amp;nbsp; &amp;nbsp;одежда или нет&lt;/font&gt;" style="rounded=0;whiteSpace=wrap;html=1;align=left;" parent="1" vertex="1">
          <mxGeometry x="338" y="210" width="180" height="110" as="geometry" />
        </mxCell>
        <mxCell id="mAN56RGID3uneWGihTwD-11" value="" style="endArrow=none;html=1;rounded=0;" parent="1" edge="1">
          <mxGeometry width="50" height="50" relative="1" as="geometry">
            <mxPoint x="340" y="60" as="sourcePoint" />
            <mxPoint x="439" y="60" as="targetPoint" />
            <Array as="points">
              <mxPoint x="350" y="60" />
              <mxPoint x="520" y="60" />
            </Array>
          </mxGeometry>
        </mxCell>
        <mxCell id="mAN56RGID3uneWGihTwD-7" value="&lt;font style=&quot;font-size: 15px;&quot;&gt;&lt;b&gt;Женская&lt;/b&gt;&lt;/font&gt;" style="text;html=1;align=center;verticalAlign=middle;whiteSpace=wrap;rounded=0;" parent="1" vertex="1">
          <mxGeometry x="399" y="210" width="60" height="30" as="geometry" />
        </mxCell>
        <mxCell id="mAN56RGID3uneWGihTwD-8" value="&lt;font size=&quot;1&quot; style=&quot;&quot;&gt;&lt;b style=&quot;font-size: 15px;&quot;&gt;Повседневная&lt;/b&gt;&lt;/font&gt;" style="text;html=1;align=center;verticalAlign=middle;whiteSpace=wrap;rounded=0;" parent="1" vertex="1">
          <mxGeometry x="214" y="360" width="190" height="50" as="geometry" />
        </mxCell>
        <mxCell id="mAN56RGID3uneWGihTwD-14" value="" style="endArrow=none;html=1;rounded=0;" parent="1" edge="1">
          <mxGeometry width="50" height="50" relative="1" as="geometry">
            <mxPoint x="339" y="239" as="sourcePoint" />
            <mxPoint x="519" y="239" as="targetPoint" />
          </mxGeometry>
        </mxCell>
        <mxCell id="mAN56RGID3uneWGihTwD-15" value="" style="endArrow=none;html=1;rounded=0;" parent="1" edge="1">
          <mxGeometry width="50" height="50" relative="1" as="geometry">
            <mxPoint x="219" y="400" as="sourcePoint" />
            <mxPoint x="399" y="400" as="targetPoint" />
          </mxGeometry>
        </mxCell>
        <mxCell id="09uM5IdEYpsqJRTho-Gx-2" value="&lt;div style=&quot;&quot;&gt;&lt;span style=&quot;font-size: 14px; background-color: initial;&quot;&gt;protected: material&lt;/span&gt;&lt;/div&gt;&lt;div style=&quot;font-size: 14px;&quot;&gt;&lt;font style=&quot;font-size: 14px;&quot;&gt;public: функция для вывода материала и перегрузка оператора вывода&lt;/font&gt;&lt;/div&gt;" style="text;html=1;align=left;verticalAlign=middle;whiteSpace=wrap;rounded=0;" vertex="1" parent="1">
          <mxGeometry x="349" y="70" width="160" height="80" as="geometry" />
        </mxCell>
        <mxCell id="09uM5IdEYpsqJRTho-Gx-3" value="" style="rounded=0;whiteSpace=wrap;html=1;" vertex="1" parent="1">
          <mxGeometry x="459" y="370" width="180" height="110" as="geometry" />
        </mxCell>
        <mxCell id="09uM5IdEYpsqJRTho-Gx-4" value="" style="endArrow=none;html=1;rounded=0;" edge="1" parent="1">
          <mxGeometry width="50" height="50" relative="1" as="geometry">
            <mxPoint x="459" y="400" as="sourcePoint" />
            <mxPoint x="639" y="400" as="targetPoint" />
          </mxGeometry>
        </mxCell>
        <mxCell id="09uM5IdEYpsqJRTho-Gx-5" value="&lt;b&gt;&lt;font style=&quot;font-size: 15px;&quot;&gt;Вечерняя&lt;/font&gt;&lt;/b&gt;" style="text;html=1;align=center;verticalAlign=middle;whiteSpace=wrap;rounded=0;" vertex="1" parent="1">
          <mxGeometry x="520" y="370" width="60" height="30" as="geometry" />
        </mxCell>
        <mxCell id="09uM5IdEYpsqJRTho-Gx-6" value="&lt;font style=&quot;font-size: 14px;&quot;&gt;public: вывод повседневная или другая&lt;/font&gt;" style="text;html=1;align=left;verticalAlign=middle;whiteSpace=wrap;rounded=0;" vertex="1" parent="1">
          <mxGeometry x="229" y="400" width="141" height="70" as="geometry" />
        </mxCell>
        <mxCell id="09uM5IdEYpsqJRTho-Gx-7" value="&lt;font style=&quot;font-size: 14px;&quot;&gt;public: вечерняя или нет&lt;/font&gt;" style="text;html=1;align=left;verticalAlign=middle;whiteSpace=wrap;rounded=0;" vertex="1" parent="1">
          <mxGeometry x="470" y="395" width="150" height="60" as="geometry" />
        </mxCell>
        <mxCell id="09uM5IdEYpsqJRTho-Gx-8" value="" style="endArrow=classic;html=1;rounded=0;exitX=0.5;exitY=0;exitDx=0;exitDy=0;" edge="1" parent="1" source="09uM5IdEYpsqJRTho-Gx-5">
          <mxGeometry width="50" height="50" relative="1" as="geometry">
            <mxPoint x="530" y="360" as="sourcePoint" />
            <mxPoint x="480" y="320" as="targetPoint" />
          </mxGeometry>
        </mxCell>
        <mxCell id="09uM5IdEYpsqJRTho-Gx-9" value="" style="endArrow=classic;html=1;rounded=0;exitX=0.5;exitY=0.2;exitDx=0;exitDy=0;exitPerimeter=0;" edge="1" parent="1" source="mAN56RGID3uneWGihTwD-8">
          <mxGeometry width="50" height="50" relative="1" as="geometry">
            <mxPoint x="349" y="370" as="sourcePoint" />
            <mxPoint x="399" y="320" as="targetPoint" />
          </mxGeometry>
        </mxCell>
        <mxCell id="09uM5IdEYpsqJRTho-Gx-10" value="" style="endArrow=classic;html=1;rounded=0;" edge="1" parent="1">
          <mxGeometry width="50" height="50" relative="1" as="geometry">
            <mxPoint x="550" y="530" as="sourcePoint" />
            <mxPoint x="550" y="480" as="targetPoint" />
          </mxGeometry>
        </mxCell>
        <mxCell id="09uM5IdEYpsqJRTho-Gx-11" value="" style="endArrow=classic;html=1;rounded=0;" edge="1" parent="1">
          <mxGeometry width="50" height="50" relative="1" as="geometry">
            <mxPoint x="310" y="530" as="sourcePoint" />
            <mxPoint x="310" y="480" as="targetPoint" />
          </mxGeometry>
        </mxCell>
        <mxCell id="09uM5IdEYpsqJRTho-Gx-13" value="" style="rounded=0;whiteSpace=wrap;html=1;" vertex="1" parent="1">
          <mxGeometry x="219" y="530" width="180" height="110" as="geometry" />
        </mxCell>
        <mxCell id="09uM5IdEYpsqJRTho-Gx-14" value="" style="endArrow=none;html=1;rounded=0;" edge="1" parent="1">
          <mxGeometry width="50" height="50" relative="1" as="geometry">
            <mxPoint x="219" y="564.5" as="sourcePoint" />
            <mxPoint x="399" y="564.5" as="targetPoint" />
          </mxGeometry>
        </mxCell>
        <mxCell id="09uM5IdEYpsqJRTho-Gx-15" value="" style="rounded=0;whiteSpace=wrap;html=1;" vertex="1" parent="1">
          <mxGeometry x="460" y="530" width="180" height="110" as="geometry" />
        </mxCell>
        <mxCell id="09uM5IdEYpsqJRTho-Gx-16" value="" style="endArrow=none;html=1;rounded=0;" edge="1" parent="1">
          <mxGeometry width="50" height="50" relative="1" as="geometry">
            <mxPoint x="460" y="564.5" as="sourcePoint" />
            <mxPoint x="640" y="564.5" as="targetPoint" />
          </mxGeometry>
        </mxCell>
        <mxCell id="09uM5IdEYpsqJRTho-Gx-17" value="&lt;font size=&quot;1&quot; style=&quot;&quot;&gt;&lt;b style=&quot;font-size: 15px;&quot;&gt;Футболка&lt;/b&gt;&lt;/font&gt;" style="text;html=1;align=center;verticalAlign=middle;whiteSpace=wrap;rounded=0;" vertex="1" parent="1">
          <mxGeometry x="279" y="530" width="60" height="30" as="geometry" />
        </mxCell>
        <mxCell id="09uM5IdEYpsqJRTho-Gx-18" value="&lt;font size=&quot;1&quot; style=&quot;&quot;&gt;&lt;b style=&quot;font-size: 15px;&quot;&gt;Платье&lt;/b&gt;&lt;/font&gt;" style="text;html=1;align=center;verticalAlign=middle;whiteSpace=wrap;rounded=0;" vertex="1" parent="1">
          <mxGeometry x="520" y="530" width="60" height="30" as="geometry" />
        </mxCell>
        <mxCell id="09uM5IdEYpsqJRTho-Gx-19" value="&lt;font style=&quot;font-size: 14px;&quot;&gt;public: футболка&lt;/font&gt;" style="text;html=1;align=left;verticalAlign=middle;whiteSpace=wrap;rounded=0;" vertex="1" parent="1">
          <mxGeometry x="229" y="560" width="130" height="60" as="geometry" />
        </mxCell>
        <mxCell id="09uM5IdEYpsqJRTho-Gx-20" value="&lt;font style=&quot;font-size: 14px;&quot;&gt;public: платье&lt;/font&gt;" style="text;html=1;align=left;verticalAlign=middle;whiteSpace=wrap;rounded=0;" vertex="1" parent="1">
          <mxGeometry x="470" y="560" width="140" height="60" as="geometry" />
        </mxCell>
      </root>
    </mxGraphModel>
  </diagram>
</mxfile>
